<svg width="41" height="41" viewBox="0 0 41 41" fill="none" xmlns="http://www.w3.org/2000/svg">
<rect y="0.253906" width="40.4922" height="40.4922" rx="4" fill="#FEFEFE"/>
<path d="M22.1522 12.625C22.6002 12.625 23.0162 12.665 23.4002 12.745C23.9991 12.8698 24.2911 13.5032 24.1066 14.0865L23.7139 15.3283C23.6248 15.61 23.3029 15.7447 23.0162 15.673C22.8402 15.625 22.6162 15.601 22.3442 15.601C21.8802 15.601 21.5122 15.753 21.2402 16.057C20.9682 16.345 20.8322 16.753 20.8322 17.281C20.8322 17.8112 21.262 18.241 21.7922 18.241H22.4162C23.1584 18.241 23.7602 18.8427 23.7602 19.585C23.7602 20.3273 23.1584 20.929 22.4162 20.929H22.2962C21.4876 20.929 20.8322 21.5845 20.8322 22.393V28.429C20.8322 29.2972 20.1284 30.001 19.2602 30.001C18.392 30.001 17.6882 29.2972 17.6882 28.429V21.985C17.6882 21.4018 17.2154 20.929 16.6322 20.929C16.049 20.929 15.5762 20.4562 15.5762 19.873V19.297C15.5762 18.7138 16.049 18.241 16.6322 18.241C17.2154 18.241 17.6882 17.7682 17.6882 17.185V17.089C17.6882 16.369 17.7922 15.737 18.0002 15.193C18.2242 14.633 18.5362 14.169 18.9362 13.801C19.3362 13.417 19.8082 13.129 20.3522 12.937C20.8962 12.729 21.4962 12.625 22.1522 12.625Z" fill="#111827"/>
</svg>
