<svg width="18" height="20" viewBox="0 0 18 20" fill="none" xmlns="http://www.w3.org/2000/svg">
<path d="M16.6653 8.56159L13.4138 6.68359L10.085 10.0124L13.4135 13.341L16.6763 11.4567C17.1851 11.1476 17.4887 10.6076 17.4887 10.0124C17.4887 9.41719 17.1849 8.87719 16.6653 8.56159Z" fill="#284A9A"/>
<path d="M10.0846 10.0111L1.01762 0.878906C0.702262 1.19427 0.510742 1.62219 0.510742 2.09523V17.8992C0.510742 18.3723 0.702262 18.8002 1.01762 19.1158L10.0846 10.0111Z" fill="url(#paint0_linear_2093_79)"/>
<path d="M10.0845 10.0117L13.4133 6.68293L13.4186 6.67765L8.95846 4.10965L3.07894 0.654133C2.5495 0.327493 1.9075 0.316213 1.36678 0.620293C1.24294 0.699013 1.13014 0.777973 1.01758 0.879253L10.0845 10.0117Z" fill="#284A9A"/>
<path d="M1.01758 19.1161C1.13014 19.2174 1.24294 19.2964 1.36678 19.3751C1.63702 19.5215 1.91878 19.6004 2.2003 19.6004C2.50438 19.6004 2.79718 19.5104 3.06766 19.3528L8.95822 15.9138L13.4184 13.3458L13.4131 13.3405L10.0845 10.0117L1.01758 19.1161Z" fill="#F63448"/>
<defs>
<linearGradient id="paint0_linear_2093_79" x1="-3.54142" y1="14.5565" x2="5.5769" y2="5.43795" gradientUnits="userSpaceOnUse">
<stop stop-color="#00E2FF"/>
<stop offset="1" stop-color="#00C5FF"/>
</linearGradient>
</defs>
</svg>
