<svg width="25" height="25" viewBox="0 0 25 25" fill="none" xmlns="http://www.w3.org/2000/svg">
<path d="M3.56364 7.74986C5.20909 4.48164 8.59084 2.24072 12.5 2.24072C15.1954 2.24072 17.459 3.23167 19.1909 4.84527L16.3227 7.71346C15.2864 6.72257 13.9681 6.21799 12.5 6.21799C9.89542 6.21799 7.69084 7.97709 6.90455 10.3407C6.7045 10.9407 6.59086 11.5816 6.59086 12.2407C6.59086 12.8998 6.7045 13.5407 6.90455 14.1407C7.69084 16.5043 9.89542 18.2634 12.5 18.2634C13.8454 18.2634 14.9909 17.9089 15.8864 17.3089C16.9454 16.5998 17.65 15.5407 17.8818 14.2907H12.5V10.4225H21.9181C22.0364 11.077 22.1 11.7589 22.1 12.468C22.1 15.5134 21.0091 18.077 19.1181 19.818C17.4636 21.3453 15.2 22.2407 12.5 22.2407C8.59084 22.2407 5.20909 19.9998 3.56364 16.7316C2.88638 15.3816 2.5 13.8543 2.5 12.2407C2.5 10.6271 2.88638 9.09983 3.56364 7.74986Z" fill="#697289"/>
</svg>
