<svg width="41" height="41" viewBox="0 0 41 41" fill="none" xmlns="http://www.w3.org/2000/svg">
<rect width="41" height="41" rx="4" fill="#FEFEFE"/>
<g clip-path="url(#clip0_2093_933)">
<path d="M28.9838 16.998C28.944 16.0948 28.7979 15.4738 28.5886 14.9357C28.3728 14.3645 28.0407 13.8531 27.6056 13.428C27.1805 12.9963 26.6657 12.6608 26.1012 12.4483C25.5599 12.2391 24.9422 12.093 24.0389 12.0532C23.1289 12.01 22.84 12 20.5319 12C18.2239 12 17.935 12.01 17.0283 12.0498C16.125 12.0896 15.5041 12.2358 14.9661 12.445C14.3948 12.6608 13.8834 12.9929 13.4583 13.428C13.0266 13.8531 12.6912 14.3679 12.4786 14.9324C12.2694 15.4738 12.1233 16.0914 12.0835 16.9947C12.0403 17.9047 12.0303 18.1936 12.0303 20.5017C12.0303 22.8097 12.0403 23.0986 12.0801 24.0053C12.1199 24.9085 12.2661 25.5295 12.4754 26.0676C12.6912 26.6388 13.0266 27.1502 13.4583 27.5753C13.8834 28.007 14.3981 28.3425 14.9627 28.555C15.5041 28.7642 16.1217 28.9103 17.0251 28.9501C17.9316 28.9901 18.2206 28.9999 20.5287 28.9999C22.8368 28.9999 23.1257 28.9901 24.0323 28.9501C24.9356 28.9103 25.5566 28.7642 26.0945 28.555C27.237 28.1133 28.1403 27.21 28.582 26.0676C28.7911 25.5263 28.9373 24.9085 28.9772 24.0053C29.017 23.0986 29.027 22.8097 29.027 20.5017C29.027 18.1936 29.0236 17.9047 28.9838 16.998ZM27.4529 23.9389C27.4163 24.7691 27.2769 25.2174 27.1606 25.5163C26.875 26.2569 26.2872 26.8447 25.5466 27.1304C25.2477 27.2466 24.7961 27.386 23.9691 27.4225C23.0725 27.4624 22.8035 27.4723 20.5353 27.4723C18.2671 27.4723 17.9948 27.4624 17.1014 27.4225C16.2711 27.386 15.8228 27.2466 15.5239 27.1304C15.1553 26.9941 14.8199 26.7783 14.5476 26.496C14.2653 26.2203 14.0494 25.8882 13.9132 25.5197C13.797 25.2208 13.6575 24.7691 13.6211 23.9422C13.5811 23.0456 13.5713 22.7765 13.5713 20.5083C13.5713 18.24 13.5811 17.9677 13.6211 17.0745C13.6575 16.2442 13.797 15.7959 13.9132 15.497C14.0494 15.1283 14.2653 14.793 14.551 14.5206C14.8265 14.2383 15.1586 14.0224 15.5273 13.8863C15.8262 13.7701 16.2779 13.6306 17.1047 13.5941C18.0014 13.5542 18.2704 13.5442 20.5386 13.5442C22.8102 13.5442 23.0791 13.5542 23.9725 13.5941C24.8027 13.6306 25.2511 13.7701 25.55 13.8863C25.9185 14.0224 26.254 14.2383 26.5263 14.5206C26.8086 14.7962 27.0244 15.1283 27.1606 15.497C27.2769 15.7959 27.4163 16.2475 27.4529 17.0745C27.4927 17.9711 27.5027 18.24 27.5027 20.5083C27.5027 22.7765 27.4927 23.0422 27.4529 23.9389Z" fill="#111827"/>
<path d="M20.5311 16.1348C18.1202 16.1348 16.1641 18.0908 16.1641 20.5018C16.1641 22.9129 18.1202 24.8689 20.5311 24.8689C22.9422 24.8689 24.8982 22.9129 24.8982 20.5018C24.8982 18.0908 22.9422 16.1348 20.5311 16.1348ZM20.5311 23.3346C18.967 23.3346 17.6983 22.0661 17.6983 20.5018C17.6983 18.9376 18.967 17.669 20.5311 17.669C22.0954 17.669 23.3639 18.9376 23.3639 20.5018C23.3639 22.0661 22.0954 23.3346 20.5311 23.3346Z" fill="#111827"/>
<path d="M26.0909 15.9629C26.0909 16.5259 25.6344 16.9824 25.0713 16.9824C24.5083 16.9824 24.0518 16.5259 24.0518 15.9629C24.0518 15.3997 24.5083 14.9434 25.0713 14.9434C25.6344 14.9434 26.0909 15.3997 26.0909 15.9629Z" fill="#111827"/>
</g>
<defs>
<clipPath id="clip0_2093_933">
<rect x="12" y="12" width="17" height="17" rx="4" fill="white"/>
</clipPath>
</defs>
</svg>
