<svg width="46" height="55" viewBox="0 0 46 55" fill="none" xmlns="http://www.w3.org/2000/svg">
<g filter="url(#filter0_dd_2093_941)">
<path d="M35.5336 28.2143C35.5711 28.2143 35.6922 28.1724 35.6922 28.1724C35.6403 28.1919 35.5912 28.2031 35.5336 28.2143Z" fill="white"/>
<path d="M22.9985 2.85645C15.666 2.85645 9.69739 8.65759 9.69739 15.7787V28.516H12.2636C15.9774 28.516 18.9935 25.579 18.9935 21.975C18.9935 18.371 15.9774 15.434 12.2636 15.434C12.0474 15.434 11.8253 15.4452 11.6091 15.4704C11.7734 9.50955 16.8223 4.70889 22.9985 4.70889C29.1748 4.70889 34.2236 9.52076 34.3822 15.49C34.1083 15.4536 33.8286 15.434 33.5518 15.434C29.8437 15.434 26.8219 18.371 26.8219 21.975C26.8219 25.579 29.8437 28.516 33.5518 28.516H36.2968V15.7787C36.2968 8.65759 30.3253 2.85645 22.9985 2.85645ZM12.2636 17.2836C14.925 17.2836 17.0876 19.3883 17.0876 21.9722C17.0876 24.5561 14.9221 26.6608 12.2636 26.6608C12.0474 26.6608 11.8253 26.6495 11.6033 26.6187V17.3257C11.8253 17.2948 12.0474 17.2836 12.2636 17.2836ZM34.388 26.5879C34.1083 26.6383 33.8286 26.6608 33.5489 26.6608C30.8875 26.6608 28.725 24.5561 28.725 21.9722C28.725 19.3883 30.8904 17.2836 33.5489 17.2836C33.8286 17.2836 34.1083 17.3089 34.388 17.3565V26.5879Z" fill="white"/>
<path d="M22.8928 43.3252C22.345 43.3252 21.9009 42.8909 21.9009 42.3584L21.9298 19.7759C22.0999 17.2789 19.8854 16.2476 19.1213 16.1748C18.8503 16.1495 18.6427 15.9309 18.6427 15.6675V15.0285C18.6427 14.7259 18.8964 14.4792 19.2078 14.4792H26.6182C26.9296 14.4792 27.1833 14.7259 27.1833 15.0285V15.6675C27.1833 15.9309 26.9728 16.1495 26.7047 16.1748C25.9521 16.2476 23.8991 17.3882 23.8271 19.6442L23.8876 42.3556C23.8905 42.8908 23.4464 43.3252 22.8957 43.3252H22.8928Z" fill="white"/>
<path d="M10.6526 43.1861H3.95152C3.42674 43.1861 3 42.7713 3 42.2613V38.7554C3 38.2453 3.42674 37.8306 3.95152 37.8306C4.4763 37.8306 4.90305 38.2453 4.90305 38.7554V41.3365H9.70103V30.687C9.70103 30.177 10.1278 29.7622 10.6526 29.7622C11.1773 29.7622 11.6041 30.177 11.6041 30.687V42.2613C11.6041 42.7713 11.1773 43.1861 10.6526 43.1861Z" fill="white"/>
<path d="M17.2866 52.1435H10.6518C10.1271 52.1435 9.70032 51.7288 9.70032 51.2187C9.70032 50.7087 10.1271 50.2939 10.6518 50.2939H16.335V31.9292C16.335 31.4192 16.7618 31.0044 17.2866 31.0044C17.8113 31.0044 18.2381 31.4192 18.2381 31.9292V51.2187C18.2381 51.7288 17.8113 52.1435 17.2866 52.1435Z" fill="white"/>
<path d="M42.0484 43.1861H35.3474C34.8226 43.1861 34.3959 42.7713 34.3959 42.2613V30.687C34.3959 30.177 34.8226 29.7622 35.3474 29.7622C35.8722 29.7622 36.2989 30.177 36.2989 30.687V41.3365H41.0969V38.7554C41.0969 38.2453 41.5236 37.8306 42.0484 37.8306C42.5732 37.8306 42.9999 38.2453 42.9999 38.7554V42.2613C42.9999 42.7713 42.5732 43.1861 42.0484 43.1861Z" fill="white"/>
<path d="M35.3462 52.1435H28.7115C28.1868 52.1435 27.76 51.7288 27.76 51.2187V31.9292C27.76 31.4192 28.1868 31.0044 28.7115 31.0044C29.2363 31.0044 29.6631 31.4192 29.6631 31.9292V50.2939H35.3462C35.871 50.2939 36.2978 50.7087 36.2978 51.2187C36.2978 51.7288 35.871 52.1435 35.3462 52.1435Z" fill="white"/>
</g>
<defs>
<filter id="filter0_dd_2093_941" x="-0.330645" y="-0.22043" width="46.6613" height="55.6613" filterUnits="userSpaceOnUse" color-interpolation-filters="sRGB">
<feFlood flood-opacity="0" result="BackgroundImageFix"/>
<feColorMatrix in="SourceAlpha" type="matrix" values="0 0 0 0 0 0 0 0 0 0 0 0 0 0 0 0 0 0 127 0" result="hardAlpha"/>
<feOffset dy="0.110215"/>
<feGaussianBlur stdDeviation="0.165323"/>
<feComposite in2="hardAlpha" operator="out"/>
<feColorMatrix type="matrix" values="0 0 0 0 0 0 0 0 0 0 0 0 0 0 0 0 0 0 0.1 0"/>
<feBlend mode="normal" in2="BackgroundImageFix" result="effect1_dropShadow_2093_941"/>
<feColorMatrix in="SourceAlpha" type="matrix" values="0 0 0 0 0 0 0 0 0 0 0 0 0 0 0 0 0 0 127 0" result="hardAlpha"/>
<feOffset dy="0.110215"/>
<feGaussianBlur stdDeviation="0.110215"/>
<feComposite in2="hardAlpha" operator="out"/>
<feColorMatrix type="matrix" values="0 0 0 0 0 0 0 0 0 0 0 0 0 0 0 0 0 0 0.06 0"/>
<feBlend mode="normal" in2="effect1_dropShadow_2093_941" result="effect2_dropShadow_2093_941"/>
<feBlend mode="normal" in="SourceGraphic" in2="effect2_dropShadow_2093_941" result="shape"/>
</filter>
</defs>
</svg>
