<svg width="440" height="440" viewBox="0 0 440 440" fill="none" xmlns="http://www.w3.org/2000/svg">
<circle cx="220" cy="220" r="220" fill="url(#paint0_linear_2800_90)"/>
<circle cx="220" cy="170" r="170" fill="url(#paint1_linear_2800_90)"/>
<g filter="url(#filter0_dd_2800_90)">
<path d="M240.457 159.146C240.517 159.146 240.709 159.079 240.709 159.079C240.627 159.11 240.549 159.128 240.457 159.146Z" fill="black"/>
<path d="M222.833 118.337C210.337 118.337 200.165 128.586 200.165 141.168V163.672H204.538C210.867 163.672 216.008 158.483 216.008 152.115C216.008 145.748 210.867 140.559 204.538 140.559C204.17 140.559 203.791 140.579 203.423 140.623C203.703 130.092 212.307 121.61 222.833 121.61C233.359 121.61 241.964 130.111 242.234 140.658C241.767 140.593 241.29 140.559 240.819 140.559C234.499 140.559 229.349 145.748 229.349 152.115C229.349 158.483 234.499 163.672 240.819 163.672H245.497V141.168C245.497 128.586 235.32 118.337 222.833 118.337ZM204.538 143.827C209.074 143.827 212.759 147.545 212.759 152.11C212.759 156.676 209.069 160.394 204.538 160.394C204.17 160.394 203.791 160.374 203.413 160.32V143.901C203.791 143.846 204.17 143.827 204.538 143.827ZM242.244 160.265C241.767 160.354 241.29 160.394 240.814 160.394C236.278 160.394 232.593 156.676 232.593 152.11C232.593 147.545 236.283 143.827 240.814 143.827C241.29 143.827 241.767 143.871 242.244 143.955V160.265Z" fill="black"/>
<path d="M221.667 190.591C220.649 190.591 219.824 189.806 219.824 188.844L219.878 148.029C220.194 143.516 216.08 141.652 214.661 141.52C214.157 141.475 213.771 141.08 213.771 140.604V139.449C213.771 138.902 214.243 138.456 214.821 138.456H228.588C229.166 138.456 229.638 138.902 229.638 139.449V140.604C229.638 141.08 229.247 141.475 228.749 141.52C227.35 141.652 223.537 143.714 223.403 147.791L223.515 188.839C223.52 189.806 222.696 190.591 221.672 190.591H221.667Z" fill="black"/>
<path d="M204.965 197.394H190.842C189.736 197.394 188.837 196.484 188.837 195.364V187.668C188.837 186.548 189.736 185.638 190.842 185.638C191.948 185.638 192.848 186.548 192.848 187.668V193.334H202.959V169.957C202.959 168.837 203.859 167.927 204.965 167.927C206.07 167.927 206.97 168.837 206.97 169.957V195.364C206.97 196.484 206.07 197.394 204.965 197.394Z" fill="black"/>
<path d="M214.014 207.728H199.923C198.809 207.728 197.902 206.883 197.902 205.844C197.902 204.805 198.809 203.96 199.923 203.96H211.993V166.544C211.993 165.505 212.9 164.66 214.014 164.66C215.129 164.66 216.035 165.505 216.035 166.544V205.844C216.035 206.883 215.129 207.728 214.014 207.728Z" fill="black"/>
<path d="M254.832 197.394H240.709C239.603 197.394 238.704 196.484 238.704 195.364V169.957C238.704 168.837 239.603 167.927 240.709 167.927C241.815 167.927 242.715 168.837 242.715 169.957V193.334H252.826V187.668C252.826 186.548 253.726 185.638 254.832 185.638C255.938 185.638 256.837 186.548 256.837 187.668V195.364C256.837 196.484 255.938 197.394 254.832 197.394Z" fill="black"/>
<path d="M245.751 208.72H231.66C230.545 208.72 229.639 207.831 229.639 206.737V165.369C229.639 164.275 230.545 163.385 231.66 163.385C232.775 163.385 233.681 164.275 233.681 165.369V204.754H245.751C246.866 204.754 247.772 205.643 247.772 206.737C247.772 207.831 246.866 208.72 245.751 208.72Z" fill="black"/>
<path d="M195.006 228.592C193.761 228.592 192.689 228.342 191.788 227.842C190.888 227.342 190.199 226.631 189.721 225.708C189.243 224.785 189.004 223.69 189.004 222.423C189.004 221.156 189.243 220.061 189.721 219.138C190.199 218.205 190.888 217.488 191.788 216.988C192.689 216.476 193.761 216.221 195.006 216.221C196.262 216.221 197.335 216.476 198.224 216.988C199.125 217.488 199.814 218.205 200.292 219.138C200.77 220.061 201.009 221.156 201.009 222.423C201.009 223.69 200.77 224.785 200.292 225.708C199.814 226.631 199.125 227.342 198.224 227.842C197.335 228.342 196.262 228.592 195.006 228.592ZM195.006 225.975C195.562 225.975 196.035 225.836 196.424 225.558C196.824 225.28 197.129 224.88 197.341 224.357C197.552 223.824 197.657 223.179 197.657 222.423C197.657 221.667 197.552 221.023 197.341 220.489C197.129 219.955 196.824 219.55 196.424 219.272C196.035 218.983 195.562 218.838 195.006 218.838C194.451 218.838 193.973 218.983 193.572 219.272C193.183 219.55 192.883 219.955 192.672 220.489C192.461 221.023 192.355 221.667 192.355 222.423C192.355 223.179 192.461 223.824 192.672 224.357C192.883 224.88 193.183 225.28 193.572 225.558C193.973 225.836 194.451 225.975 195.006 225.975ZM207.107 228.526C206.129 228.526 205.273 228.331 204.54 227.942C203.817 227.553 203.25 227.008 202.839 226.308C202.439 225.597 202.239 224.769 202.239 223.824C202.239 222.879 202.439 222.056 202.839 221.356C203.25 220.656 203.817 220.111 204.54 219.722C205.273 219.322 206.129 219.122 207.107 219.122C207.974 219.122 208.753 219.277 209.442 219.589C210.131 219.889 210.687 220.322 211.109 220.889C211.543 221.445 211.798 222.118 211.876 222.907L208.558 223.04C208.491 222.507 208.33 222.112 208.075 221.856C207.819 221.589 207.496 221.456 207.107 221.456C206.607 221.456 206.224 221.662 205.957 222.073C205.69 222.484 205.557 223.068 205.557 223.824C205.557 224.591 205.69 225.18 205.957 225.591C206.224 226.002 206.607 226.208 207.107 226.208C207.508 226.208 207.836 226.08 208.091 225.825C208.358 225.558 208.514 225.141 208.558 224.574L211.876 224.674C211.809 225.463 211.565 226.147 211.142 226.725C210.731 227.303 210.181 227.748 209.492 228.059C208.803 228.37 208.008 228.526 207.107 228.526ZM216.802 228.326C215.79 228.326 215.051 228.092 214.584 227.625C214.117 227.147 213.884 226.392 213.884 225.358V217.204H217.119V224.891C217.119 225.336 217.208 225.641 217.385 225.808C217.574 225.964 217.858 226.041 218.236 226.041H219.47V228.326H216.802ZM212.35 221.606V219.322H219.47V221.606H212.35ZM225.051 228.526C224.073 228.526 223.217 228.331 222.483 227.942C221.761 227.553 221.194 227.008 220.783 226.308C220.383 225.597 220.182 224.769 220.182 223.824C220.182 222.879 220.383 222.056 220.783 221.356C221.194 220.656 221.761 220.111 222.483 219.722C223.217 219.322 224.073 219.122 225.051 219.122C226.029 219.122 226.88 219.322 227.602 219.722C228.336 220.111 228.903 220.656 229.303 221.356C229.714 222.056 229.92 222.879 229.92 223.824C229.92 224.769 229.714 225.597 229.303 226.308C228.903 227.008 228.336 227.553 227.602 227.942C226.88 228.331 226.029 228.526 225.051 228.526ZM225.051 226.208C225.551 226.208 225.935 226.002 226.202 225.591C226.468 225.18 226.602 224.591 226.602 223.824C226.602 223.068 226.468 222.484 226.202 222.073C225.935 221.651 225.551 221.439 225.051 221.439C224.551 221.439 224.168 221.651 223.901 222.073C223.634 222.484 223.501 223.068 223.501 223.824C223.501 224.591 223.634 225.18 223.901 225.591C224.168 226.002 224.551 226.208 225.051 226.208ZM237.101 228.526C236.467 228.526 235.928 228.398 235.483 228.142C235.039 227.875 234.689 227.503 234.433 227.025L234.383 228.326H231.232V216.487H234.466V220.622C234.722 220.167 235.072 219.805 235.517 219.539C235.961 219.261 236.489 219.122 237.101 219.122C237.846 219.122 238.49 219.316 239.035 219.705C239.591 220.094 240.019 220.645 240.319 221.356C240.619 222.056 240.769 222.879 240.769 223.824C240.769 224.769 240.619 225.597 240.319 226.308C240.019 227.008 239.591 227.553 239.035 227.942C238.49 228.331 237.846 228.526 237.101 228.526ZM236 226.208C236.423 226.208 236.767 226.002 237.034 225.591C237.312 225.18 237.451 224.591 237.451 223.824C237.451 223.057 237.318 222.468 237.051 222.056C236.795 221.645 236.445 221.439 236 221.439C235.678 221.439 235.4 221.534 235.167 221.723C234.933 221.901 234.755 222.168 234.633 222.523C234.522 222.879 234.466 223.312 234.466 223.824C234.466 224.324 234.522 224.752 234.633 225.108C234.755 225.463 234.933 225.736 235.167 225.925C235.4 226.114 235.678 226.208 236 226.208ZM242.076 228.326V219.322H245.311V228.326H242.076ZM242.026 218.421V216.154H245.361V218.421H242.026ZM250.228 228.526C249.483 228.526 248.838 228.337 248.294 227.959C247.76 227.57 247.343 227.025 247.043 226.325C246.754 225.613 246.61 224.78 246.61 223.824C246.61 222.868 246.76 222.04 247.06 221.339C247.36 220.628 247.782 220.083 248.327 219.705C248.872 219.316 249.505 219.122 250.228 219.122C250.895 219.122 251.451 219.255 251.895 219.522C252.34 219.789 252.679 220.156 252.912 220.622V216.487H256.147V228.326H252.996L252.946 227.025C252.701 227.503 252.34 227.875 251.862 228.142C251.395 228.398 250.85 228.526 250.228 228.526ZM251.412 226.208C251.734 226.208 252.006 226.125 252.229 225.958C252.451 225.791 252.618 225.536 252.729 225.191C252.851 224.835 252.912 224.38 252.912 223.824C252.912 223.268 252.851 222.818 252.729 222.473C252.618 222.118 252.451 221.856 252.229 221.69C252.006 221.523 251.734 221.439 251.412 221.439C250.956 221.439 250.595 221.656 250.328 222.09C250.061 222.512 249.928 223.09 249.928 223.824C249.928 224.535 250.061 225.113 250.328 225.558C250.606 225.991 250.967 226.208 251.412 226.208Z" fill="#1E252B"/>
</g>
<defs>
<filter id="filter0_dd_2800_90" x="179.218" y="109.479" width="87.2369" height="133.226" filterUnits="userSpaceOnUse" color-interpolation-filters="sRGB">
<feFlood flood-opacity="0" result="BackgroundImageFix"/>
<feColorMatrix in="SourceAlpha" type="matrix" values="0 0 0 0 0 0 0 0 0 0 0 0 0 0 0 0 0 0 127 0" result="hardAlpha"/>
<feOffset dy="0.260527"/>
<feGaussianBlur stdDeviation="0.39079"/>
<feComposite in2="hardAlpha" operator="out"/>
<feColorMatrix type="matrix" values="0 0 0 0 0 0 0 0 0 0 0 0 0 0 0 0 0 0 0.1 0"/>
<feBlend mode="normal" in2="BackgroundImageFix" result="effect1_dropShadow_2800_90"/>
<feColorMatrix in="SourceAlpha" type="matrix" values="0 0 0 0 0 0 0 0 0 0 0 0 0 0 0 0 0 0 127 0" result="hardAlpha"/>
<feOffset dy="0.260527"/>
<feGaussianBlur stdDeviation="0.260527"/>
<feComposite in2="hardAlpha" operator="out"/>
<feColorMatrix type="matrix" values="0 0 0 0 0 0 0 0 0 0 0 0 0 0 0 0 0 0 0.06 0"/>
<feBlend mode="normal" in2="effect1_dropShadow_2800_90" result="effect2_dropShadow_2800_90"/>
<feBlend mode="normal" in="SourceGraphic" in2="effect2_dropShadow_2800_90" result="shape"/>
</filter>
<linearGradient id="paint0_linear_2800_90" x1="220" y1="0" x2="220" y2="440" gradientUnits="userSpaceOnUse">
<stop stop-color="white" stop-opacity="0"/>
<stop offset="1" stop-color="#C6CFE3" stop-opacity="0.2"/>
<stop offset="1" stop-color="#B2BCD4" stop-opacity="0.25"/>
</linearGradient>
<linearGradient id="paint1_linear_2800_90" x1="220" y1="0" x2="220" y2="340" gradientUnits="userSpaceOnUse">
<stop stop-color="white" stop-opacity="0"/>
<stop offset="1" stop-color="#9696CE" stop-opacity="0.2"/>
</linearGradient>
</defs>
</svg>
