<svg width="37" height="43" viewBox="0 0 37 43" fill="none" xmlns="http://www.w3.org/2000/svg">
<g filter="url(#filter0_dd_2093_954)">
<path d="M27.1147 22.0211C27.1419 22.0211 27.2297 21.9907 27.2297 21.9907C27.1921 22.0049 27.1566 22.013 27.1147 22.0211Z" fill="#284A9A"/>
<path d="M18.0269 3.63379C12.7107 3.63379 8.3833 7.83986 8.3833 13.003V22.238H10.2439C12.9364 22.238 15.1231 20.1086 15.1231 17.4955C15.1231 14.8825 12.9364 12.753 10.2439 12.753C10.0871 12.753 9.9261 12.7612 9.76932 12.7795C9.88847 8.45757 13.549 4.97689 18.0269 4.97689C22.5047 4.97689 26.1652 8.46569 26.2802 12.7937C26.0816 12.7673 25.8788 12.753 25.6782 12.753C22.9897 12.753 20.7989 14.8825 20.7989 17.4955C20.7989 20.1086 22.9897 22.238 25.6782 22.238H27.6683V13.003C27.6683 7.83986 23.3389 3.63379 18.0269 3.63379ZM10.2439 14.0941C12.1734 14.0941 13.7413 15.6201 13.7413 17.4935C13.7413 19.3669 12.1713 20.8929 10.2439 20.8929C10.0871 20.8929 9.9261 20.8848 9.76513 20.8624V14.1246C9.9261 14.1022 10.0871 14.0941 10.2439 14.0941ZM26.2844 20.8401C26.0816 20.8767 25.8788 20.8929 25.6761 20.8929C23.7465 20.8929 22.1786 19.3669 22.1786 17.4935C22.1786 15.6201 23.7486 14.0941 25.6761 14.0941C25.8788 14.0941 26.0816 14.1124 26.2844 14.1469V20.8401Z" fill="#284A9A"/>
<path d="M17.9496 32.98C17.5524 32.98 17.2304 32.665 17.2304 32.279L17.2514 15.9058C17.3747 14.0953 15.7692 13.3476 15.2152 13.2947C15.0187 13.2765 14.8682 13.118 14.8682 12.927V12.4637C14.8682 12.2442 15.0521 12.0654 15.2779 12.0654H20.6505C20.8763 12.0654 21.0603 12.2442 21.0603 12.4637V12.927C21.0603 13.118 20.9077 13.2765 20.7132 13.2947C20.1676 13.3476 18.6792 14.1746 18.6269 15.8103L18.6708 32.2769C18.6729 32.665 18.351 32.98 17.9517 32.98H17.9496Z" fill="#284A9A"/>
<path d="M9.07509 32.8755H4.21673C3.83625 32.8755 3.52686 32.5748 3.52686 32.2049V29.663C3.52686 29.2932 3.83625 28.9925 4.21673 28.9925C4.5972 28.9925 4.9066 29.2932 4.9066 29.663V31.5344H8.38521V23.8131C8.38521 23.4433 8.69461 23.1426 9.07509 23.1426C9.45556 23.1426 9.76496 23.4433 9.76496 23.8131V32.2049C9.76496 32.5748 9.45556 32.8755 9.07509 32.8755Z" fill="#284A9A"/>
<path d="M13.8852 39.3668H9.07488C8.69441 39.3668 8.38501 39.0661 8.38501 38.6963C8.38501 38.3265 8.69441 38.0257 9.07488 38.0257H13.1953V24.7106C13.1953 24.3408 13.5047 24.04 13.8852 24.04C14.2656 24.04 14.575 24.3408 14.575 24.7106V38.6963C14.575 39.0661 14.2656 39.3668 13.8852 39.3668Z" fill="#284A9A"/>
<path d="M31.837 32.8755H26.9787C26.5982 32.8755 26.2888 32.5748 26.2888 32.2049V23.8131C26.2888 23.4433 26.5982 23.1426 26.9787 23.1426C27.3592 23.1426 27.6686 23.4433 27.6686 23.8131V31.5344H31.1472V29.663C31.1472 29.2932 31.4566 28.9925 31.837 28.9925C32.2175 28.9925 32.5269 29.2932 32.5269 29.663V32.2049C32.5269 32.5748 32.2175 32.8755 31.837 32.8755Z" fill="#284A9A"/>
<path d="M26.9777 39.3668H22.1674C21.7869 39.3668 21.4775 39.0661 21.4775 38.6963V24.7106C21.4775 24.3408 21.7869 24.04 22.1674 24.04C22.5479 24.04 22.8573 24.3408 22.8573 24.7106V38.0257H26.9777C27.3582 38.0257 27.6676 38.3265 27.6676 38.6963C27.6676 39.0661 27.3582 39.3668 26.9777 39.3668Z" fill="#284A9A"/>
</g>
<defs>
<filter id="filter0_dd_2093_954" x="-0.330645" y="-0.113497" width="36.7151" height="43.4479" filterUnits="userSpaceOnUse" color-interpolation-filters="sRGB">
<feFlood flood-opacity="0" result="BackgroundImageFix"/>
<feColorMatrix in="SourceAlpha" type="matrix" values="0 0 0 0 0 0 0 0 0 0 0 0 0 0 0 0 0 0 127 0" result="hardAlpha"/>
<feOffset dy="0.110215"/>
<feGaussianBlur stdDeviation="0.165323"/>
<feComposite in2="hardAlpha" operator="out"/>
<feColorMatrix type="matrix" values="0 0 0 0 0 0 0 0 0 0 0 0 0 0 0 0 0 0 0.1 0"/>
<feBlend mode="normal" in2="BackgroundImageFix" result="effect1_dropShadow_2093_954"/>
<feColorMatrix in="SourceAlpha" type="matrix" values="0 0 0 0 0 0 0 0 0 0 0 0 0 0 0 0 0 0 127 0" result="hardAlpha"/>
<feOffset dy="0.110215"/>
<feGaussianBlur stdDeviation="0.110215"/>
<feComposite in2="hardAlpha" operator="out"/>
<feColorMatrix type="matrix" values="0 0 0 0 0 0 0 0 0 0 0 0 0 0 0 0 0 0 0.06 0"/>
<feBlend mode="normal" in2="effect1_dropShadow_2093_954" result="effect2_dropShadow_2093_954"/>
<feBlend mode="normal" in="SourceGraphic" in2="effect2_dropShadow_2093_954" result="shape"/>
</filter>
</defs>
</svg>
