<svg width="86" height="133" viewBox="0 0 86 133" fill="none" xmlns="http://www.w3.org/2000/svg">
<g filter="url(#filter0_dd_2093_814)">
<path d="M60.4569 49.8551C60.5166 49.8551 60.7093 49.7883 60.7093 49.7883C60.6267 49.8195 60.5487 49.8373 60.4569 49.8551Z" fill="black"/>
<path d="M42.8332 9.04639C30.3367 9.04639 20.1646 19.2958 20.1646 31.8773V54.3814H24.5381C30.8674 54.3814 36.0075 49.1923 36.0075 42.8248C36.0075 36.4573 30.8674 31.2682 24.5381 31.2682C24.1695 31.2682 23.7911 31.2881 23.4226 31.3326C23.7027 20.801 32.3072 12.3193 42.8332 12.3193C53.3591 12.3193 61.9636 20.8208 62.2339 31.3673C61.7671 31.3029 61.2904 31.2682 60.8187 31.2682C54.4992 31.2682 49.3492 36.4573 49.3492 42.8248C49.3492 49.1923 54.4992 54.3814 60.8187 54.3814H65.4969V31.8773C65.4969 19.2958 55.3198 9.04639 42.8332 9.04639ZM24.5381 34.5362C29.0738 34.5362 32.7593 38.2547 32.7593 42.8199C32.7593 47.385 29.0688 51.1035 24.5381 51.1035C24.1695 51.1035 23.7911 51.0837 23.4128 51.0293V34.6104C23.7911 34.556 24.1695 34.5362 24.5381 34.5362ZM62.2438 50.9748C61.7671 51.0639 61.2904 51.1035 60.8138 51.1035C56.2781 51.1035 52.5925 47.385 52.5925 42.8199C52.5925 38.2547 56.283 34.5362 60.8138 34.5362C61.2904 34.5362 61.7671 34.5807 62.2438 34.6649V50.9748Z" fill="black"/>
<path d="M41.6671 81.3007C40.6494 81.3007 39.8245 80.5156 39.8245 79.5532L39.878 38.7386C40.1941 34.2256 36.0802 32.3616 34.6607 32.2299C34.1572 32.1843 33.7715 31.7893 33.7715 31.3131V30.1583C33.7715 29.6113 34.2429 29.1655 34.8214 29.1655H48.5879C49.1664 29.1655 49.6378 29.6113 49.6378 30.1583V31.3131C49.6378 31.7893 49.2468 32.1843 48.7486 32.2299C47.3505 32.3616 43.5366 34.4231 43.4027 38.5005L43.5152 79.5482C43.5205 80.5156 42.6956 81.3007 41.6725 81.3007H41.6671Z" fill="black"/>
<path d="M24.9645 88.1037H10.8422C9.73627 88.1037 8.83691 87.1932 8.83691 86.0736V78.3775C8.83691 77.2579 9.73627 76.3474 10.8422 76.3474C11.9482 76.3474 12.8475 77.2579 12.8475 78.3775V84.0434H22.9592V60.6661C22.9592 59.5465 23.8586 58.636 24.9645 58.636C26.0705 58.636 26.9698 59.5465 26.9698 60.6661V86.0736C26.9698 87.1932 26.0705 88.1037 24.9645 88.1037Z" fill="black"/>
<path d="M34.0144 98.4376H19.9232C18.8087 98.4376 17.9023 97.5926 17.9023 96.5534C17.9023 95.5142 18.8087 94.6692 19.9232 94.6692H31.9935V57.2536C31.9935 56.2144 32.8998 55.3694 34.0144 55.3694C35.1289 55.3694 36.0353 56.2144 36.0353 57.2536V96.5534C36.0353 97.5926 35.1289 98.4376 34.0144 98.4376Z" fill="black"/>
<path d="M74.8316 88.1037H60.7093C59.6033 88.1037 58.704 87.1932 58.704 86.0736V60.6661C58.704 59.5465 59.6033 58.636 60.7093 58.636C61.8153 58.636 62.7146 59.5465 62.7146 60.6661V84.0434H72.8263V78.3775C72.8263 77.2579 73.7256 76.3474 74.8316 76.3474C75.9375 76.3474 76.8369 77.2579 76.8369 78.3775V86.0736C76.8369 87.1932 75.9375 88.1037 74.8316 88.1037Z" fill="black"/>
<path d="M65.7511 99.4299H51.6599C50.5454 99.4299 49.639 98.5404 49.639 97.4466V56.0783C49.639 54.9845 50.5454 54.095 51.6599 54.095C52.7745 54.095 53.6808 54.9845 53.6808 56.0783V95.4632H65.7511C66.8656 95.4632 67.772 96.3527 67.772 97.4466C67.772 98.5404 66.8656 99.4299 65.7511 99.4299Z" fill="black"/>
<path d="M15.0064 119.302C13.7614 119.302 12.6888 119.052 11.7884 118.552C10.888 118.051 10.1988 117.34 9.72083 116.417C9.24285 115.495 9.00386 114.4 9.00386 113.133C9.00386 111.865 9.24285 110.771 9.72083 109.848C10.1988 108.914 10.888 108.197 11.7884 107.697C12.6888 107.186 13.7614 106.93 15.0064 106.93C16.2625 106.93 17.3352 107.186 18.2244 107.697C19.1248 108.197 19.814 108.914 20.292 109.848C20.77 110.771 21.0089 111.865 21.0089 113.133C21.0089 114.4 20.77 115.495 20.292 116.417C19.814 117.34 19.1248 118.051 18.2244 118.552C17.3352 119.052 16.2625 119.302 15.0064 119.302ZM15.0064 116.684C15.5622 116.684 16.0346 116.545 16.4237 116.267C16.8238 115.989 17.1295 115.589 17.3407 115.067C17.5519 114.533 17.6575 113.889 17.6575 113.133C17.6575 112.377 17.5519 111.732 17.3407 111.199C17.1295 110.665 16.8238 110.259 16.4237 109.981C16.0346 109.692 15.5622 109.548 15.0064 109.548C14.4506 109.548 13.9726 109.692 13.5725 109.981C13.1834 110.259 12.8833 110.665 12.6721 111.199C12.4609 111.732 12.3553 112.377 12.3553 113.133C12.3553 113.889 12.4609 114.533 12.6721 115.067C12.8833 115.589 13.1834 115.989 13.5725 116.267C13.9726 116.545 14.4506 116.684 15.0064 116.684ZM27.1075 119.235C26.1293 119.235 25.2734 119.041 24.5397 118.652C23.8172 118.263 23.2503 117.718 22.839 117.018C22.4388 116.306 22.2388 115.478 22.2388 114.533C22.2388 113.588 22.4388 112.766 22.839 112.066C23.2503 111.365 23.8172 110.821 24.5397 110.432C25.2734 110.031 26.1293 109.831 27.1075 109.831C27.9745 109.831 28.7526 109.987 29.4418 110.298C30.131 110.598 30.6868 111.032 31.1092 111.599C31.5427 112.154 31.7984 112.827 31.8762 113.616L28.5581 113.75C28.4914 113.216 28.3302 112.821 28.0746 112.566C27.8189 112.299 27.4965 112.166 27.1075 112.166C26.6073 112.166 26.2238 112.371 25.957 112.783C25.6902 113.194 25.5568 113.777 25.5568 114.533C25.5568 115.3 25.6902 115.889 25.957 116.301C26.2238 116.712 26.6073 116.918 27.1075 116.918C27.5077 116.918 27.8356 116.79 28.0912 116.534C28.358 116.267 28.5136 115.85 28.5581 115.284L31.8762 115.384C31.8095 116.173 31.5649 116.856 31.1425 117.434C30.7312 118.013 30.181 118.457 29.4918 118.768C28.8026 119.08 28.0079 119.235 27.1075 119.235ZM36.802 119.035C35.7904 119.035 35.0512 118.802 34.5843 118.335C34.1175 117.857 33.8841 117.101 33.8841 116.067V107.914H37.1188V115.6C37.1188 116.045 37.2077 116.351 37.3855 116.517C37.5745 116.673 37.858 116.751 38.2359 116.751H39.4697V119.035H36.802ZM32.3501 112.316V110.031H39.4697V112.316H32.3501ZM45.0513 119.235C44.0731 119.235 43.2172 119.041 42.4835 118.652C41.761 118.263 41.1941 117.718 40.7828 117.018C40.3826 116.306 40.1825 115.478 40.1825 114.533C40.1825 113.588 40.3826 112.766 40.7828 112.066C41.1941 111.365 41.761 110.821 42.4835 110.432C43.2172 110.031 44.0731 109.831 45.0513 109.831C46.0295 109.831 46.8798 110.031 47.6024 110.432C48.336 110.821 48.9029 111.365 49.3031 112.066C49.7144 112.766 49.92 113.588 49.92 114.533C49.92 115.478 49.7144 116.306 49.3031 117.018C48.9029 117.718 48.336 118.263 47.6024 118.652C46.8798 119.041 46.0295 119.235 45.0513 119.235ZM45.0513 116.918C45.5515 116.918 45.935 116.712 46.2018 116.301C46.4685 115.889 46.6019 115.3 46.6019 114.533C46.6019 113.777 46.4685 113.194 46.2018 112.783C45.935 112.36 45.5515 112.149 45.0513 112.149C44.5511 112.149 44.1676 112.36 43.9008 112.783C43.634 113.194 43.5006 113.777 43.5006 114.533C43.5006 115.3 43.634 115.889 43.9008 116.301C44.1676 116.712 44.5511 116.918 45.0513 116.918ZM57.1009 119.235C56.4673 119.235 55.9282 119.107 55.4836 118.852C55.0389 118.585 54.6888 118.213 54.4331 117.735L54.3831 119.035H51.2318V107.197H54.4665V111.332C54.7221 110.876 55.0723 110.515 55.5169 110.248C55.9615 109.97 56.4895 109.831 57.1009 109.831C57.8457 109.831 58.4904 110.026 59.0351 110.415C59.5908 110.804 60.0188 111.354 60.3189 112.066C60.6191 112.766 60.7691 113.588 60.7691 114.533C60.7691 115.478 60.6191 116.306 60.3189 117.018C60.0188 117.718 59.5908 118.263 59.0351 118.652C58.4904 119.041 57.8457 119.235 57.1009 119.235ZM56.0004 116.918C56.4228 116.918 56.7674 116.712 57.0342 116.301C57.3121 115.889 57.4511 115.3 57.4511 114.533C57.4511 113.766 57.3177 113.177 57.0509 112.766C56.7952 112.355 56.4451 112.149 56.0004 112.149C55.6781 112.149 55.4002 112.243 55.1668 112.432C54.9333 112.61 54.7555 112.877 54.6332 113.233C54.522 113.588 54.4665 114.022 54.4665 114.533C54.4665 115.033 54.522 115.461 54.6332 115.817C54.7555 116.173 54.9333 116.445 55.1668 116.634C55.4002 116.823 55.6781 116.918 56.0004 116.918ZM62.0762 119.035V110.031H65.3109V119.035H62.0762ZM62.0262 109.131V106.863H65.3609V109.131H62.0262ZM70.2279 119.235C69.4832 119.235 68.8385 119.046 68.2938 118.668C67.7602 118.279 67.3434 117.735 67.0433 117.034C66.7543 116.323 66.6097 115.489 66.6097 114.533C66.6097 113.577 66.7598 112.749 67.0599 112.049C67.3601 111.337 67.7825 110.793 68.3271 110.415C68.8718 110.026 69.5054 109.831 70.2279 109.831C70.8949 109.831 71.4507 109.965 71.8953 110.231C72.3399 110.498 72.679 110.865 72.9124 111.332V107.197H76.1471V119.035H72.9958L72.9458 117.735C72.7012 118.213 72.3399 118.585 71.862 118.852C71.3951 119.107 70.8504 119.235 70.2279 119.235ZM71.4118 116.918C71.7341 116.918 72.0065 116.834 72.2288 116.667C72.4511 116.501 72.6178 116.245 72.729 115.9C72.8513 115.545 72.9124 115.089 72.9124 114.533C72.9124 113.977 72.8513 113.527 72.729 113.183C72.6178 112.827 72.4511 112.566 72.2288 112.399C72.0065 112.232 71.7341 112.149 71.4118 112.149C70.956 112.149 70.5948 112.366 70.328 112.799C70.0612 113.222 69.9278 113.8 69.9278 114.533C69.9278 115.245 70.0612 115.823 70.328 116.267C70.6059 116.701 70.9671 116.918 71.4118 116.918Z" fill="#1E252B"/>
</g>
<defs>
<filter id="filter0_dd_2093_814" x="-0.781581" y="0.188419" width="87.2369" height="133.226" filterUnits="userSpaceOnUse" color-interpolation-filters="sRGB">
<feFlood flood-opacity="0" result="BackgroundImageFix"/>
<feColorMatrix in="SourceAlpha" type="matrix" values="0 0 0 0 0 0 0 0 0 0 0 0 0 0 0 0 0 0 127 0" result="hardAlpha"/>
<feOffset dy="0.260527"/>
<feGaussianBlur stdDeviation="0.39079"/>
<feComposite in2="hardAlpha" operator="out"/>
<feColorMatrix type="matrix" values="0 0 0 0 0 0 0 0 0 0 0 0 0 0 0 0 0 0 0.1 0"/>
<feBlend mode="normal" in2="BackgroundImageFix" result="effect1_dropShadow_2093_814"/>
<feColorMatrix in="SourceAlpha" type="matrix" values="0 0 0 0 0 0 0 0 0 0 0 0 0 0 0 0 0 0 127 0" result="hardAlpha"/>
<feOffset dy="0.260527"/>
<feGaussianBlur stdDeviation="0.260527"/>
<feComposite in2="hardAlpha" operator="out"/>
<feColorMatrix type="matrix" values="0 0 0 0 0 0 0 0 0 0 0 0 0 0 0 0 0 0 0.06 0"/>
<feBlend mode="normal" in2="effect1_dropShadow_2093_814" result="effect2_dropShadow_2093_814"/>
<feBlend mode="normal" in="SourceGraphic" in2="effect2_dropShadow_2093_814" result="shape"/>
</filter>
</defs>
</svg>
