<svg width="94" height="93" viewBox="0 0 94 93" fill="none" xmlns="http://www.w3.org/2000/svg">
<g filter="url(#filter0_dd_2721_46)">
<rect x="2" y="1" width="90" height="90" rx="17.6258" fill="#036EB6" shape-rendering="crispEdges"/>
<g clip-path="url(#clip0_2721_46)">
<path d="M47.6038 16.9221C44.5473 16.9221 42.0607 19.4087 42.0607 22.4652C42.0607 25.5216 44.5474 28.0083 47.6038 28.0083C50.6601 28.0083 53.1469 25.5216 53.1469 22.4652C53.1469 19.4087 50.6603 16.9221 47.6038 16.9221Z" fill="white"/>
<path d="M56.5719 37.1414L54.2197 30.0848C53.9454 29.2622 53.1756 28.7072 52.3084 28.7072H42.8995C42.0322 28.7072 41.2625 29.262 40.9882 30.0848L38.636 37.1414C38.2013 38.4454 39.1741 39.7932 40.5473 39.7932H54.6606C56.0353 39.7932 57.0061 38.4441 56.5719 37.1414Z" fill="white"/>
<path d="M25.7861 34.5938C22.7296 34.5938 20.243 37.0804 20.243 40.1369C20.243 43.1934 22.7297 45.68 25.7861 45.68C28.8424 45.68 31.3292 43.1934 31.3292 40.1369C31.3292 37.0804 28.8426 34.5938 25.7861 34.5938Z" fill="white"/>
<path d="M34.7527 54.8132L32.4004 47.7567C32.126 46.934 31.3562 46.3792 30.489 46.3792H21.08C20.2127 46.3792 19.443 46.934 19.1687 47.7568L16.8166 54.8132C16.382 56.1174 17.3549 57.4651 18.728 57.4651H32.8412C34.2159 57.4651 35.1867 56.116 34.7527 54.8132Z" fill="white"/>
<path d="M47.6095 52.2679C44.553 52.2679 42.0664 54.7545 42.0664 57.811C42.0664 60.8673 44.553 63.3541 47.6095 63.3541C50.666 63.3541 53.1526 60.8674 53.1526 57.811C53.1526 54.7545 50.666 52.2679 47.6095 52.2679Z" fill="white"/>
<path d="M56.5727 72.4872L54.2206 65.4307C53.9462 64.608 53.1764 64.053 52.3092 64.053H42.9004C42.033 64.053 41.2633 64.6079 40.989 65.4307L38.6368 72.4872C38.2021 73.7914 39.1751 75.139 40.5482 75.139H54.6614C56.0362 75.1389 57.0069 73.7899 56.5727 72.4872Z" fill="white"/>
<path d="M39.6047 24.8141C39.1205 23.8123 37.9156 23.3926 36.9139 23.8769C33.7927 25.3856 30.9634 27.593 28.7319 30.2606C28.0179 31.1141 28.1311 32.3848 28.9846 33.0988C29.8379 33.8128 31.1085 33.6998 31.8227 32.8461C33.6903 30.6137 36.0572 28.7667 38.6676 27.5049C39.6693 27.0207 40.089 25.816 39.6047 24.8141Z" fill="white"/>
<path d="M69.4279 34.5939C66.3714 34.5939 63.8848 37.0807 63.8848 40.137C63.8848 43.1934 66.3714 45.6801 69.4279 45.6801C72.4843 45.6801 74.971 43.1935 74.971 40.137C74.971 37.0805 72.4843 34.5939 69.4279 34.5939Z" fill="white"/>
<path d="M78.396 54.8136L76.0438 47.7571C75.7695 46.9344 74.9997 46.3794 74.1325 46.3794H64.7237C63.8564 46.3794 63.0867 46.9343 62.8124 47.757L60.4601 54.8135C60.0254 56.1177 60.9983 57.4654 62.3714 57.4654H76.4845C77.8592 57.4654 78.8301 56.1164 78.396 54.8136Z" fill="white"/>
<path d="M66.479 30.2604C64.2475 27.5929 61.4183 25.3855 58.297 23.8767C57.295 23.3927 56.0905 23.8122 55.6062 24.814C55.1221 25.8157 55.5417 27.0203 56.5434 27.5046C59.1538 28.7664 61.5207 30.6134 63.3882 32.8458C64.1024 33.6994 65.373 33.8122 66.2264 33.0985C67.0799 32.3845 67.1931 31.1138 66.479 30.2604Z" fill="white"/>
<path d="M66.2265 58.9697C65.3732 58.2557 64.1024 58.3687 63.3883 59.2224C61.5208 61.4548 59.1539 63.3018 56.5434 64.5636C55.5417 65.0477 55.122 66.2525 55.6064 67.2544C56.0907 68.2565 57.2955 68.6756 58.2972 68.1916C61.4183 66.6829 64.2477 64.4755 66.4792 61.8079C67.1931 60.9544 67.0799 59.6837 66.2265 58.9697Z" fill="white"/>
<path d="M38.6676 64.5633C36.0571 63.3015 33.6902 61.4546 31.8227 59.2221C31.1085 58.3685 29.838 58.2556 28.9845 58.9694C28.1311 59.6835 28.018 60.9541 28.7321 61.8076C30.9636 64.4751 33.7928 66.6824 36.9141 68.1912C37.9165 68.6757 39.1207 68.2554 39.6048 67.2541C40.0888 66.2522 39.6692 65.0476 38.6676 64.5633Z" fill="white"/>
</g>
</g>
<defs>
<filter id="filter0_dd_2721_46" x="0.770295" y="0.180197" width="92.4594" height="92.4594" filterUnits="userSpaceOnUse" color-interpolation-filters="sRGB">
<feFlood flood-opacity="0" result="BackgroundImageFix"/>
<feColorMatrix in="SourceAlpha" type="matrix" values="0 0 0 0 0 0 0 0 0 0 0 0 0 0 0 0 0 0 127 0" result="hardAlpha"/>
<feOffset dy="0.409902"/>
<feGaussianBlur stdDeviation="0.614853"/>
<feComposite in2="hardAlpha" operator="out"/>
<feColorMatrix type="matrix" values="0 0 0 0 0 0 0 0 0 0 0 0 0 0 0 0 0 0 0.1 0"/>
<feBlend mode="normal" in2="BackgroundImageFix" result="effect1_dropShadow_2721_46"/>
<feColorMatrix in="SourceAlpha" type="matrix" values="0 0 0 0 0 0 0 0 0 0 0 0 0 0 0 0 0 0 127 0" result="hardAlpha"/>
<feOffset dy="0.409902"/>
<feGaussianBlur stdDeviation="0.409902"/>
<feComposite in2="hardAlpha" operator="out"/>
<feColorMatrix type="matrix" values="0 0 0 0 0 0 0 0 0 0 0 0 0 0 0 0 0 0 0.06 0"/>
<feBlend mode="normal" in2="effect1_dropShadow_2721_46" result="effect2_dropShadow_2721_46"/>
<feBlend mode="normal" in="SourceGraphic" in2="effect2_dropShadow_2721_46" result="shape"/>
</filter>
<clipPath id="clip0_2721_46">
<rect width="63" height="63" fill="white" transform="translate(15.5 14.5)"/>
</clipPath>
</defs>
</svg>
