<svg width="94" height="93" viewBox="0 0 94 93" fill="none" xmlns="http://www.w3.org/2000/svg">
<g filter="url(#filter0_dd_2094_1203)">
<rect x="2" y="1" width="90" height="90" rx="17.6258" fill="#284A9A" shape-rendering="crispEdges"/>
<path d="M55.7382 33.4016H57.5159C60.4611 33.4016 62.8487 35.7893 62.8487 38.7346C62.8487 39.7164 62.0529 40.5123 61.0711 40.5123C60.0894 40.5123 59.2935 39.7164 59.2935 38.7346C59.2935 37.7528 58.4976 36.9569 57.5159 36.9569H39.7396C38.7579 36.9569 37.962 37.7528 37.962 38.7346V42.7617C37.962 43.6464 38.6125 44.3964 39.4882 44.5215L58.2701 47.2047C60.8973 47.58 62.8487 49.8301 62.8487 52.4841V56.5112C62.8487 59.4565 60.4611 61.8442 57.5159 61.8442H55.7382V63.6219C55.7382 64.6036 54.9424 65.3995 53.9606 65.3995C52.9789 65.3995 52.183 64.6036 52.183 63.6219V61.8442H45.0725V63.6219C45.0725 64.6036 44.2766 65.3995 43.2949 65.3995C42.3131 65.3995 41.5172 64.6036 41.5172 63.6219V61.8442H39.7396C36.7943 61.8442 34.4067 59.4565 34.4067 56.5112C34.4067 55.5294 35.2026 54.7335 36.1844 54.7335C37.1661 54.7335 37.962 55.5294 37.962 56.5112C37.962 57.493 38.7579 58.2889 39.7396 58.2889H57.5159C58.4976 58.2889 59.2935 57.493 59.2935 56.5112V52.4841C59.2935 51.5994 58.643 50.8494 57.7673 50.7243L38.9854 48.0411C36.3582 47.6658 34.4067 45.4157 34.4067 42.7617V38.7346C34.4067 35.7893 36.7943 33.4016 39.7396 33.4016H41.5172V31.624C41.5172 30.6422 42.3131 29.8463 43.2949 29.8463C44.2766 29.8463 45.0725 30.6422 45.0725 31.624V33.4016H52.183V31.624C52.183 30.6422 52.9789 29.8463 53.9606 29.8463C54.9424 29.8463 55.7382 30.6422 55.7382 31.624V33.4016ZM16.6305 47.6229C16.6305 29.9509 30.9561 15.625 48.6277 15.625C66.2993 15.625 80.625 29.9509 80.625 47.6229C80.625 65.2949 66.2993 79.6208 48.6277 79.6208C42.7725 79.6208 37.1463 78.0438 32.2349 75.1079L18.9702 79.5296C17.4678 80.0304 16.1099 78.4647 16.8181 77.0482L22.379 65.9263C18.6623 60.6065 16.6305 54.2665 16.6305 47.6229ZM31.898 71.4726C32.405 71.3036 32.9612 71.3717 33.4125 71.658C37.9268 74.5223 43.161 76.0655 48.6277 76.0655C64.3358 76.0655 77.0697 63.3313 77.0697 47.6229C77.0697 31.9145 64.3358 19.1803 48.6277 19.1803C32.9196 19.1803 20.1857 31.9145 20.1857 47.6229C20.1857 53.8677 22.2014 59.8024 25.8724 64.6891C26.2771 65.2278 26.3424 65.9491 26.0411 66.5518L21.9173 74.7996L31.898 71.4726Z" fill="white"/>
</g>
<defs>
<filter id="filter0_dd_2094_1203" x="0.770295" y="0.180197" width="92.4594" height="92.4594" filterUnits="userSpaceOnUse" color-interpolation-filters="sRGB">
<feFlood flood-opacity="0" result="BackgroundImageFix"/>
<feColorMatrix in="SourceAlpha" type="matrix" values="0 0 0 0 0 0 0 0 0 0 0 0 0 0 0 0 0 0 127 0" result="hardAlpha"/>
<feOffset dy="0.409902"/>
<feGaussianBlur stdDeviation="0.614853"/>
<feComposite in2="hardAlpha" operator="out"/>
<feColorMatrix type="matrix" values="0 0 0 0 0 0 0 0 0 0 0 0 0 0 0 0 0 0 0.1 0"/>
<feBlend mode="normal" in2="BackgroundImageFix" result="effect1_dropShadow_2094_1203"/>
<feColorMatrix in="SourceAlpha" type="matrix" values="0 0 0 0 0 0 0 0 0 0 0 0 0 0 0 0 0 0 127 0" result="hardAlpha"/>
<feOffset dy="0.409902"/>
<feGaussianBlur stdDeviation="0.409902"/>
<feComposite in2="hardAlpha" operator="out"/>
<feColorMatrix type="matrix" values="0 0 0 0 0 0 0 0 0 0 0 0 0 0 0 0 0 0 0.06 0"/>
<feBlend mode="normal" in2="effect1_dropShadow_2094_1203" result="effect2_dropShadow_2094_1203"/>
<feBlend mode="normal" in="SourceGraphic" in2="effect2_dropShadow_2094_1203" result="shape"/>
</filter>
</defs>
</svg>
