<svg width="24" height="25" viewBox="0 0 24 25" fill="none" xmlns="http://www.w3.org/2000/svg">
<path d="M12.001 2.24072C6.50098 2.24072 2.00098 6.74072 2.00098 12.2407C2.00098 17.7407 6.50098 22.2407 12.001 22.2407C17.501 22.2407 22.001 17.7407 22.001 12.2407C22.001 6.74072 17.551 2.24072 12.001 2.24072ZM15.751 16.8907C13.401 15.4407 10.451 15.1399 6.95014 15.9399C6.60181 16.0415 6.30098 15.7907 6.20098 15.4907C6.10098 15.1399 6.35098 14.8407 6.65098 14.7407C10.451 13.8899 13.751 14.2407 16.351 15.8407C16.701 15.9907 16.7501 16.3899 16.6018 16.6907C16.4018 16.9899 16.0518 17.0907 15.751 16.8907ZM16.7501 14.1907C14.051 12.5407 9.95098 12.0407 6.80098 13.0407C6.40181 13.1407 5.95098 12.9407 5.85098 12.5407C5.75098 12.1407 5.95098 11.6899 6.35098 11.5899C10.001 10.4907 14.501 11.0415 17.601 12.9407C17.9018 13.0915 18.051 13.5907 17.8018 13.9407C17.551 14.2907 17.101 14.4407 16.7501 14.1907ZM6.30098 9.99155C5.80098 10.1407 5.30098 9.84072 5.15098 9.39072C5.00098 8.88989 5.30098 8.39072 5.75098 8.23989C9.30098 7.18989 15.151 7.38989 18.8518 9.59072C19.301 9.84072 19.451 10.4407 19.201 10.8907C18.9518 11.2415 18.351 11.3899 17.9018 11.1407C14.701 9.24072 9.35098 9.04072 6.30098 9.99155Z" fill="#697289"/>
</svg>
