<svg width="90" height="90" viewBox="0 0 90 90" fill="none" xmlns="http://www.w3.org/2000/svg">
<rect width="90" height="90" rx="17.63" fill="#F96223"/>
<path d="M45.243 40.4199V40.4209L45.2479 40.4268C50.1327 46.1623 58.5411 46.1563 63.4598 40.4365L63.663 40.2002L63.8837 40.4609V40.4619C65.1593 41.9813 66.6896 43.2303 68.3407 43.9512L68.3456 43.9531C69.3033 44.3676 70.0026 44.6002 70.4882 44.7305C70.731 44.7956 70.9219 44.8357 71.0663 44.8604C71.1386 44.8727 71.1999 44.8808 71.2499 44.8867C71.2746 44.8896 71.2967 44.8918 71.3163 44.8936C71.3261 44.8944 71.336 44.8958 71.3446 44.8965C71.3487 44.8968 71.3526 44.8972 71.3563 44.8975H71.3671C71.3681 44.8917 71.3738 44.8015 71.4589 43.4004L71.368 44.8975L71.9198 44.9307L71.951 45.5225V75.2344C71.951 77.0642 70.7192 78.1151 69.7303 78.1152H20.2684C19.2509 78.1151 18.0477 77.0746 18.0477 75.2344V44.8027L18.3964 44.7578L18.4061 44.7568L18.4159 44.7549C21.4872 44.3118 24.028 42.9126 26.1366 40.4355L26.1376 40.4365L26.3573 40.1826L26.5682 40.4258V40.4268C31.4908 46.2059 39.8237 46.2428 44.8553 40.4365L45.0585 40.2012L45.243 40.4199Z" stroke="white" stroke-width="3"/>
<path d="M20.1942 11.8846H25.9881L22.2195 30.3827L22.0682 31.1229C21.0843 34.4356 18.6872 35.4275 17.075 35.4276C15.3347 35.4276 12.7992 34.3198 11.9363 30.6678L11.8885 30.3055C11.8988 30.0312 11.9626 29.7099 12.0662 29.3758C12.1765 29.0206 12.3078 28.7159 12.4002 28.5028L12.4041 28.493L12.408 28.4842L12.8963 27.3133L12.8953 27.3123L19.0858 12.8123C19.589 11.9678 19.9849 11.8846 20.1942 11.8846Z" stroke="white" stroke-width="3"/>
<path d="M40.9686 11.9374L40.7957 30.8387C39.8817 34.3454 37.4045 35.4374 35.6795 35.4374H35.0369C33.4376 35.2232 31.5616 34.1303 30.6795 31.3055L30.5867 30.9891L30.5447 30.827L30.8514 27.5253L34.0818 11.9374H40.9686Z" stroke="white" stroke-width="3"/>
<path d="M55.9218 11.9375L59.1141 27.2324L59.4559 30.7871L59.412 30.959C58.5068 34.3803 56.1278 35.4375 54.3602 35.4375C52.6285 35.4375 50.0966 34.3386 49.2274 30.6562L48.8319 26.541V11.9375H55.9218Z" stroke="white" stroke-width="3"/>
<path d="M69.618 11.9374C70.042 11.9374 70.6517 12.259 70.9852 13.0282L77.5223 28.2899L77.5418 28.3329C77.7466 28.7717 78.0491 29.6953 78.1151 30.4198V30.5927L78.074 30.8016C77.1872 34.4064 74.7455 35.4803 72.9627 35.4803C71.2051 35.4803 68.6428 34.3477 67.7801 30.5194L67.0359 26.2694L67.032 26.246L67.0272 26.2225L64.0574 11.9374H69.618Z" stroke="white" stroke-width="3"/>
</svg>
