<svg width="42" height="41" viewBox="0 0 42 41" fill="none" xmlns="http://www.w3.org/2000/svg">
<rect x="0.898438" y="0.253906" width="40.4922" height="40.4922" rx="4" fill="#FEFEFE"/>
<path d="M30.5332 15.088C29.8314 15.3996 29.0776 15.6094 28.2863 15.704C29.0944 15.22 29.7141 14.4536 30.006 13.5399C29.2506 13.988 28.4132 14.3136 27.5214 14.4896C26.8079 13.7291 25.7915 13.2539 24.6666 13.2539C22.5062 13.2539 20.755 15.0058 20.755 17.1655C20.755 17.472 20.7902 17.7712 20.8562 18.0565C17.6053 17.8937 14.7233 16.3361 12.7932 13.9689C12.4573 14.5468 12.2644 15.2185 12.2644 15.9364C12.2644 17.2931 12.9545 18.4906 14.0039 19.1917C13.363 19.1712 12.7594 18.9952 12.2322 18.7026C12.2322 18.7194 12.2322 18.7348 12.2322 18.7517C12.2322 20.6474 13.58 22.2284 15.3701 22.587C15.0423 22.6765 14.6962 22.7242 14.339 22.7242C14.0875 22.7242 13.8418 22.6992 13.6035 22.6545C14.1014 24.2084 15.5461 25.34 17.2577 25.3715C15.9194 26.4209 14.2327 27.0464 12.3994 27.0464C12.084 27.0464 11.7724 27.0281 11.4658 26.9914C13.1972 28.101 15.2528 28.7485 17.4623 28.7485C24.6578 28.7485 28.5914 22.788 28.5914 17.6187C28.5914 17.4493 28.5877 17.2806 28.5804 17.1127C29.3452 16.5605 30.0089 15.8719 30.5332 15.088Z" fill="#111827"/>
</svg>
